<?xml version="1.0" standalone="no"?>
<!DOCTYPE svg PUBLIC "-//W3C//DTD SVG 1.1//EN" "http://www.w3.org/Graphics/SVG/1.1/DTD/svg11.dtd" >
<!--
2013-9-30: Created.
-->
<svg>
<metadata>
Created by iconfont
</metadata>
<defs>

<font id="iconfont" horiz-adv-x="1024" >
  <font-face
    font-family="iconfont"
    font-weight="500"
    font-stretch="normal"
    units-per-em="1024"
    ascent="896"
    descent="-128"
  />
    <missing-glyph />
    
    <glyph glyph-name="x" unicode="x" horiz-adv-x="1001"
d="M281 543q-27 -1 -53 -1h-83q-18 0 -36.5 -6t-32.5 -18.5t-23 -32t-9 -45.5v-76h912v41q0 16 -0.5 30t-0.5 18q0 13 -5 29t-17 29.5t-31.5 22.5t-49.5 9h-133v-97h-438v97zM955 310v-52q0 -23 0.5 -52t0.5 -58t-10.5 -47.5t-26 -30t-33 -16t-31.5 -4.5q-14 -1 -29.5 -0.5
t-29.5 0.5h-32l-45 128h-439l-44 -128h-29h-34q-20 0 -45 1q-25 0 -41 9.5t-25.5 23t-13.5 29.5t-4 30v167h911zM163 247q-12 0 -21 -8.5t-9 -21.5t9 -21.5t21 -8.5q13 0 22 8.5t9 21.5t-9 21.5t-22 8.5zM316 123q-8 -26 -14 -48q-5 -19 -10.5 -37t-7.5 -25t-3 -15t1 -14.5
t9.5 -10.5t21.5 -4h37h67h81h80h64h36q23 0 34 12t2 38q-5 13 -9.5 30.5t-9.5 34.5q-5 19 -11 39h-368zM336 498v228q0 11 2.5 23t10 21.5t20.5 15.5t34 6h188q31 0 51.5 -14.5t20.5 -52.5v-227h-327z" />
    

    
    <glyph glyph-name="security" unicode="&#59328;" d="M768 554.666667l-42.666667 0 0 85.333333c0 117.76-95.573333 213.333333-213.333333 213.333333s-213.333333-95.573333-213.333333-213.333333l0-85.333333-42.666667 0c-47.146667 0-85.333333-38.186667-85.333333-85.333333l0-426.666667c0-47.146667 38.186667-85.333333 85.333333-85.333333l512 0c47.146667 0 85.333333 38.186667 85.333333 85.333333l0 426.666667c0 47.146667-38.186667 85.333333-85.333333 85.333333zM512 170.66666699999996c-47.146667 0-85.333333 38.186667-85.333333 85.333333s38.186667 85.333333 85.333333 85.333333 85.333333-38.186667 85.333333-85.333333-38.186667-85.333333-85.333333-85.333333zM644.266667 554.666667l-264.533333 0 0 85.333333c0 72.96 59.306667 132.266667 132.266667 132.266667s132.266667-59.306667 132.266667-132.266667l0-85.333333z"  horiz-adv-x="1024" />

    
    <glyph glyph-name="star" unicode="&#59789;" d="M512 896l-128-384-384 0 320-256-128-384 320 256 320-256-128 384 320 256-384 0-128 384z"  horiz-adv-x="1024" />

    
    <glyph glyph-name="user" unicode="&#60498;" d="M914.285769 93.110857q0-68.534857-41.691429-108.251429t-110.884571-39.716571l-499.419429 0q-69.12 0-110.884571 39.716571t-41.691429 108.251429q0 30.281143 1.974857 59.172571t7.972571 62.317714 15.140571 62.025143 24.576 55.734857 35.401143 46.299429 48.859429 30.573714 63.707429 11.410286q5.12 0 23.990857-12.288t42.569143-27.428571 61.732571-27.428571 76.288-12.288 76.288 12.288 61.732571 27.428571 42.569143 27.428571 23.990857 12.288q34.889143 0 63.707429-11.410286t48.859429-30.573714 35.401143-46.299429 24.576-55.734857 15.140571-62.025143 7.972571-62.317714 1.974857-59.172571zM731.428626 603.428571q0-90.843429-64.292571-155.136t-155.136-64.292571-155.136 64.292571-64.292571 155.136 64.292571 155.136 155.136 64.292571 155.136-64.292571 64.292571-155.136z"  horiz-adv-x="1024" />

    
    <glyph glyph-name="twitter" unicode="&#60595;" d="M962.267429 662.820571q-38.253714-56.027429-92.598857-95.451429 0.585143-7.972571 0.585143-23.990857 0-74.313143-21.723429-148.260571t-65.974857-141.970286-105.398857-120.32-147.456-83.456-184.539429-31.158857q-154.843429 0-283.428571 82.870857 19.968-2.267429 44.544-2.267429 128.585143 0 229.156571 78.848-59.977143 1.170286-107.446857 36.864t-65.170286 91.136q18.870857-2.852571 34.889143-2.852571 24.576 0 48.566857 6.290286-64 13.165714-105.984 63.707429t-41.984 117.394286l0 2.267429q38.838857-21.723429 83.456-23.405714-37.741714 25.161143-59.977143 65.682286t-22.308571 87.990857q0 50.322286 25.161143 93.110857 69.12-85.138286 168.301714-136.265143t212.260571-56.832q-4.534857 21.723429-4.534857 42.276571 0 76.580571 53.979429 130.56t130.56 53.979429q80.018286 0 134.875429-58.294857 62.317714 11.995429 117.174857 44.544-21.138286-65.682286-81.115429-101.741714 53.174857 5.705143 106.276571 28.598857z"  horiz-adv-x="1024" />

    
    <glyph glyph-name="food" unicode="&#59074;" d="M475.405312 859.365376l0-365.69088q0-34.854912-20.284416-63.424512t-52.85376-39.99744l0-445.114368q0-29.712384-21.712896-51.42528t-51.42528-21.712896l-73.138176 0q-29.712384 0-51.42528 21.712896t-21.712896 51.42528l0 445.114368q-32.569344 11.42784-52.85376 39.99744t-20.284416 63.424512l0 365.69088q0 14.856192 10.856448 25.71264t25.71264 10.856448 25.71264-10.856448 10.856448-25.71264l0-237.699072q0-14.856192 10.856448-25.71264t25.71264-10.856448 25.71264 10.856448 10.856448 25.71264l0 237.699072q0 14.856192 10.856448 25.71264t25.71264 10.856448 25.71264-10.856448 10.856448-25.71264l0-237.699072q0-14.856192 10.856448-25.71264t25.71264-10.856448 25.71264 10.856448 10.856448 25.71264l0 237.699072q0 14.856192 10.856448 25.71264t25.71264 10.856448 25.71264-10.856448 10.856448-25.71264zm438.829056 0l0-914.2272q0-29.712384-21.712896-51.42528t-51.42528-21.712896l-73.138176 0q-29.712384 0-51.42528 21.712896t-21.712896 51.42528l0 292.552704-127.991808 0q-7.428096 0-12.85632 5.428224t-5.428224 12.85632l0 457.1136q0 75.423744 53.710848 129.134592t129.134592 53.710848l146.276352 0q14.856192 0 25.71264-10.856448t10.856448-25.71264z"  horiz-adv-x="1024" />

    
    <glyph glyph-name="cart" unicode="&#58969;" d="M128.012451-31.969911A3 3 10800 1 0 320.006225-31.969911 3 3 10800 1 0 128.012451-31.969911zM767.991699-31.969911A3 3 10800 1 0 959.985474-31.969911 3 3 10800 1 0 767.991699-31.969911zM959.985474 384.016601 959.985474 768.00415 128.012451 768.00415C128.012451 838.689858 70.702309 896 0.016601 896l0-63.997925c35.294856 0 63.997925-28.703069 63.997925-63.997925l48.062442-412.050639C82.797917 332.498272 64.014526 296.46744 64.014526 256.020751c0-70.685708 57.310142-127.99585 127.99585-127.99585l767.975098 0 0 63.997925L192.010376 192.022826c-35.358853 0-63.997925 28.639071-63.997925 63.997925 0 0.223993 0 0.447985 0.031999 0.671978L959.985474 384.016601z"  horiz-adv-x="1024" />

    
    <glyph glyph-name="wallet" unicode="&#59455;" d="M512 256c0 35.36 28.64 64 64 64s64-28.64 64-64c0-35.36-28.64-64-64-64s-64 28.64-64 64zM928.032 480c-0.032 0-0.032 0 0 0l-0.032 192 0 96c0 53.024-43.008 96-96 96l-656 0c-97.056 0-176-78.976-176-176l0-640c0-97.024 78.944-176 176-176l576 0c97.024 0 176 78.976 176 176l0 48c0 0 0 0 0.032 0 127.936 96.032 127.936 287.968 0 384zM176 800l656 0c17.632 0 32-14.336 32-32l0-197.888c-10.048 3.584-20.736 5.888-32 5.888l-0.032 0 0 160c0 17.696-14.336 32-32 32l-672 0c-17.664 0-32-14.304-32-32l0-126.176c-19.744 20.192-31.968 47.712-31.968 78.176 0 61.856 50.112 112 112 112zM799.968 704l-672 0 0 32 672 0 0-32zM799.968 672l0-32-672 0 0 32 672 0zM799.968 608l0-32-623.968 0c-17.28 0-33.408 4.224-48 11.2l0 20.8 671.968 0zM864 48c0-61.856-50.144-112-112-112l-576 0c-61.888 0-112 50.144-112 112l0 504.352c30.432-25.184 69.472-40.352 112-40.352l656 0c17.632 0 32-14.336 32-32l0-64-288 0c-88.384 0-160-71.616-160-160s71.648-160 160-160l288 0 0-48zM904.864 160l-328.864 0c-52.928 0-96 43.072-96 96s43.072 96 96 96l288 0c19.744 0.256 39.328 9.824 51.264 25.728 3.328 4.48 5.92 9.504 8 14.752 0.288 0.704 0.8 1.248 1.056 1.984 23.008-30.176 35.68-67.168 35.68-106.464 0-49.216-19.872-94.88-55.136-128z"  horiz-adv-x="1024" />

    
    <glyph glyph-name="location-arrow" unicode="&#58936;" d="M578.782609-105.73913000000005L1024 873.73913 22.26087 428.521739 578.782609 428.521739 578.782609-105.73913000000005Z"  horiz-adv-x="1047" />

    
    <glyph glyph-name="location-big" unicode="&#58911;" d="M511.968 896c-207.84 0-376.96-169.12-376.96-376.992 0-54.208 11.104-105.984 32.96-153.888 94.24-206.24 274.976-424 328.128-485.824 3.968-4.608 9.792-7.296 15.904-7.296s11.904 2.656 15.904 7.296c53.12 61.824 233.856 279.552 328.128 485.824 21.888 47.904 32.96 99.648 32.96 153.888-0.032 207.872-169.152 376.992-376.992 376.992zM511.968 323.20000000000005c-107.968 0-195.808 87.84-195.808 195.808s87.84 195.84 195.808 195.84 195.808-87.84 195.808-195.84c0-107.968-87.84-195.808-195.808-195.808z"  horiz-adv-x="1024" />

    
    <glyph glyph-name="location" unicode="&#58948;" d="M536.217 805.31c-168.027 0-302.524-134.497-302.524-302.524 0-120.961 87.056-215.095 181.191-336.055 32.786-45.949 58.866-91.9 92.023-150.268 1.74-3.105 3.974-5.961 6.582-8.321 5.588-5.091 12.047-9.438 22.726-9.438v0c11.425 0 18.007 4.844 23.844 10.432 1.986 1.862 3.726 4.098 5.217 6.334 33.158 52.409 59.362 98.481 92.273 144.556 94.135 127.666 181.191 221.801 181.191 342.761 0 168.027-134.497 302.524-302.524 302.524v0zM536.217 401.945c-53.774 0-100.842 40.362-100.842 100.842s40.362 100.842 100.842 100.842c53.774 0 100.842-40.362 100.842-100.842 0-53.774-40.362-100.842-100.842-100.842v0zM536.217 125.37599999999998c-140.334 0-254.091-53.525-254.091-119.47s113.757-119.47 254.091-119.47 254.091 53.525 254.091 119.47-113.757 119.47-254.091 119.47zM536.217-42.650999999999954c-105.561 0-191.003 37.505-191.003 78.735s85.566 74.886 191.003 74.886 191.003-33.532 191.003-74.886-85.566-78.735-191.003-78.735z"  horiz-adv-x="1024" />

    
    <glyph glyph-name="minus" unicode="&#59267;" d="M512 832C264.576 832 64 631.424 64 384c0-247.36 200.576-448 448-448 247.36 0 448 200.64 448 448C960 631.424 759.36 832 512 832zM731.648 340.48l-444.608 0c-23.616 0-42.624 18.496-42.624 41.152C244.224 404.288 263.488 422.72 286.976 422.72l444.48 0c23.616 0 42.752-18.432 42.624-41.216C774.272 358.848 755.136 340.48 731.648 340.48z"  horiz-adv-x="1024" />

    
    <glyph glyph-name="plus" unicode="&#59322;" d="M512 832C264.64 832 64 631.424 64 384c0-247.36 200.64-448 448-448 247.424 0 448 200.64 448 448C960 631.424 759.424 832 512 832zM734.272 342.784l-181.12 0.064 0-181.184c0-23.488-18.368-42.624-41.152-42.624-22.72-0.064-41.152 19.072-41.152 42.56L470.848 342.848l-181.12 0C266.24 342.784 246.976 361.344 246.976 383.936c0.128 22.656 19.264 41.152 42.88 41.088l180.992 0L470.848 606.208c0 23.68 18.496 42.688 41.152 42.752 22.72 0.064 41.152-19.136 41.152-42.688l0-181.248 181.12 0c23.616 0.128 42.752-18.432 42.752-41.152C777.024 361.344 758.016 342.784 734.272 342.784z"  horiz-adv-x="1024" />

    
    <glyph glyph-name="map" unicode="&#58964;" d="M939.151543 122.520707c-0.055259-0.62831-0.104377-1.248434-0.188288-1.870604-0.249687-1.665942-0.600681-3.275603-1.036609-4.870938-0.378623-1.487887-0.822738-2.937912-1.357927-4.376681-0.273223-0.692778-0.557702-1.366114-0.865717-2.039449-3.76065-8.704243-10.247388-16.290011-19.314904-21.008476L673.572886-35.939281c-12.716626-9.317203-30.03506-11.365862-44.963051-3.593851L364.764658 99.056296 147.087986-18.477584c-19.550265-10.160407-43.173289-3.583618-55.116295 14.33959-0.190335 0.276293-0.36532 0.557702-0.549515 0.840134-0.651846 1.028423-1.421372 1.943258-1.994424 3.044336-0.398066 0.76748-0.590448 1.577938-0.936325 2.355651-0.545422 1.169639-0.991584 2.373047-1.432629 3.597945-0.400113 1.165546-0.793062 2.319835-1.085728 3.501754-0.51984 1.958608-0.851391 3.968381-1.085728 6.025227-0.047072 0.468674-0.11154 0.930185-0.141216 1.39579-0.096191 1.167592-0.350994 2.288113-0.350994 3.478218L84.395132 453.721945c0 3.862981 0.677429 7.53665 1.63729 11.098779 0.179079 0.705058 0.431835 1.381463 0.645706 2.080382 0.530073 1.620917 1.064238 3.224438 1.77646 4.755304 0.778736 1.762133 1.738597 3.422959 2.753717 5.073552 0.254803 0.396019 0.468674 0.812505 0.735757 1.197268 3.538593 5.351891 8.18645 10.06831 14.119579 13.495362l63.563688 36.745902c20.452821 11.80793 46.604434 4.802376 58.413388-15.650445 11.80793-20.452821 4.802376-46.604434-15.650445-58.410318l-42.47437-24.553209 0-338.524017 168.687934 91.082438c6.604418 4.857635 14.404058 7.701402 22.541389 8.233522 0.942465 0.085958 1.87265 0.025583 2.814092 0.049119 1.366114-0.002047 2.717901 0.060375 4.086062-0.074701 7.679913-0.549515 15.026228-3.193739 21.369703-7.609305l258.431887-135.747707 206.238155 105.569384L854.085122 480.701412c-20.409842-11.583826-46.369074-4.577249-58.123792 15.780405-11.80793 20.452821-4.800329 46.602388 15.652492 58.410318l63.563688 36.747949c1.257643 0.724501 2.584871 1.161453 3.880377 1.746784 0.632403 0.290619 1.25048 0.594541 1.90028 0.855484 1.862417 0.735757 3.735068 1.293459 5.644557 1.752924 0.900509 0.222057 1.789763 0.449231 2.712785 0.613984 1.752924 0.301875 3.495614 0.449231 5.252631 0.530073 0.769526 0.040932 1.497097 0.229221 2.276856 0.229221 0.457418 0 0.881067-0.119727 1.334391-0.135076 1.321088-0.051165 2.614547-0.222057 3.923356-0.396019 1.676176-0.207731 3.328815-0.431835 4.938476-0.827855 0.645706-0.164752 1.263783-0.398066 1.902326-0.592494 2.15099-0.63752 4.241604-1.3743 6.237051-2.328022 0.151449-0.072655 0.292666-0.164752 0.442068-0.239454 14.155395-6.969739 23.982204-21.397333 23.982204-38.242999l0-427.604868C939.604868 125.468852 939.310156 124.014734 939.151543 122.520707zM543.236422 277.707139c-7.807826-8.400321-18.863626-13.734816-31.236422-13.734816-12.370749 0-23.422456 5.332449-31.230282 13.728676-59.411111 56.135508-183.421496 188.903348-183.421496 319.964312 0 118.549 96.101755 214.653825 214.650755 214.653825s214.653825-96.103802 214.653825-214.653825C726.652801 466.608439 602.651626 333.847763 543.236422 277.707139zM512 725.123214c-70.845535 0-128.277572-57.434084-128.277572-128.279618 0-70.116941 53.677527-152.913669 91.541903-202.75789 7.429203-12.633738 21.018709-21.206998 36.735669-21.206998 15.719007 0 29.310559 8.575306 36.739762 21.213137 37.864376 49.841152 91.539856 132.636856 91.539856 202.750727C640.279618 667.689131 582.847581 725.123214 512 725.123214z"  horiz-adv-x="1024" />

    
    <glyph glyph-name="phone" unicode="&#58912;" d="M744.88336631 834L279.11663369 834C247.69738057 834 222.13901972 808.43973545 222.13901972 777.02048144l0-786.04096376c0-31.41734942 25.56026455-56.97951855 56.97951856-56.97951856L744.88336631-66c31.41925312 0 56.97951855 25.56026455 56.97951856 56.97951855L801.86288398 777.02048144C801.86098028 808.43973545 776.30261943 834 744.88336631 834zM250.69159443 690.7878990300001l522.61871484-1e-8 0-595.20126357L250.69159443 95.58663457 250.69159443 690.7878990300001zM279.11663369 805.44742529L744.88336631 805.44742529c15.67346045 0 28.42694385-12.75157969 28.42694385-28.42694384l0-67.1975332L250.69159443 709.82294825 250.69159443 777.02048144C250.69159443 792.6958456 263.44317412 805.44742529 279.11663369 805.44742529zM744.88336631-37.44552157999999L279.11663369-37.44552157999999c-15.67346045 0-28.42694385 12.75157969-28.42694385 28.42694385l0 85.57206679 522.61871485 0 0-85.57206679C773.30840557-24.693941900000027 760.55682588-37.44552157999999 744.88336631-37.44552157999999zM512.00095185 63.93325048999998c-25.782975 0-46.75769648-20.9766252-46.75769648-46.7596002s20.9766252-46.75769648 46.75769648-46.75769648 46.75769648 20.9766252 46.75769649 46.75769648-20.97472148 46.75960019-46.75769649 46.7596002z m0-74.48224658c-15.28704844 0-27.72264638 12.43750166-27.72264638 27.72264638 0 15.28704844 12.43559795 27.7245501 27.72264638 27.7245501s27.72264638-12.43750166 27.72264639-27.7245501c0-15.28514472-12.43559795-27.72264638-27.72264639-27.72264638zM447.28178223 743.3075045l129.43833925-1e-8c5.25748096 0 9.51752461 4.26194737 9.51752461 9.51752461s-4.26004453 9.51752461-9.51752461 9.51752461l-129.43833925 0c-5.25748096 0-9.51752461-4.26194737-9.51752461-9.51752461s4.26004453-9.51752461 9.51752461-9.51752461zM413.02440283 743.3075045c2.49359151 0 4.94911318 1.00885781 6.71937276 2.77911738 1.77025957 1.78929492 2.79815273 4.22578125 2.79815273 6.73840722s-1.02789229 4.94911318-2.79815273 6.73840723c-1.77216328 1.77025957-4.22768497 2.77911739-6.71937276 2.77911738-2.51262685 0-4.9510169-1.00885781-6.73840723-2.77911738-1.77025957-1.77025957-2.77911739-4.22578125-2.77911738-6.73840723s1.00885781-4.94911318 2.77911738-6.73840722c1.77025957-1.77025957 4.22578125-2.77911739 6.73840723-2.77911739z"  horiz-adv-x="1024" />

    
    <glyph glyph-name="order" unicode="&#58898;" d="M831.993-128L192.006-128c-70.708 0-127.987 57.329-127.987 127.987L64.019 639.975c0 70.708 57.279 128.037 127.987 128.037l95.978 0 0 63.97 86.217 0C401.9 870.085 452.935 896 511.999 896S622.1 870.085 649.798 831.982l86.167 0 0-63.97 96.027 0c70.659 0 127.988-57.329 127.988-128.037l0-639.988C959.981-70.67100000000005 902.652-128 831.993-128L831.993-128zM671.997 768.012l-71.105 0c0 35.33-39.788 63.97-88.893 63.97-49.104 0-88.893-28.64-88.893-63.97l-71.103 0 0-128.037 319.994 0L671.997 768.012 671.997 768.012zM895.962 639.975c0 35.379-28.64 64.018-63.969 64.018l-96.027 0 0-127.987L287.985 576.006 287.985 703.9929999999999l-95.978 0c-35.329 0-64.019-28.64-64.019-64.018l0-639.988c0-35.328 28.691-63.968 64.019-63.968l639.987 0c35.329 0 63.969 28.64 63.969 63.968L895.963 639.975 895.962 639.975zM735.966 64.00699999999995L287.985 64.00699999999995c-17.64 0-31.96 14.32-31.96 32.009 0 17.69 14.32 32.01 31.96 32.01l447.981 0c17.689 0 32.009-14.32 32.009-32.01C767.974 78.327 753.654 64.00699999999995 735.966 64.00699999999995L735.966 64.00699999999995zM735.966 224.00400000000002L287.985 224.00400000000002c-17.64 0-31.96 14.32-31.96 32.009 0 17.64 14.32 32.009 31.96 32.009l447.981 0c17.689 0 32.009-14.369 32.009-32.009C767.974 238.32299999999998 753.654 224.00400000000002 735.966 224.00400000000002L735.966 224.00400000000002zM735.966 384L287.985 384c-17.64 0-31.96 14.32-31.96 32.01s14.32 32.01 31.96 32.01l447.981 0c17.689 0 32.009-14.32 32.009-32.01S753.654 384 735.966 384L735.966 384z"  horiz-adv-x="1024" />

    
    <glyph glyph-name="location-arrow-alter" unicode="&#59116;" d="M128 384L512 384 512 0 554.666667 0 896 768 128 426.666667Z"  horiz-adv-x="1024" />

    
    <glyph glyph-name="plus-alt" unicode="&#58880;" d="M512 839.111111a455.111111 455.111111 0 1 1 0-910.222222A455.111111 455.111111 0 0 1 512 839.111111z m0-796.444444c-188.245333 0-341.333333 153.088-341.333333 341.333333s153.088 341.333333 341.333333 341.333333 341.333333-153.088 341.333333-341.333333-153.088-341.333333-341.333333-341.333333zM683.235556 440.888889H568.888889V555.235556A56.32 56.32 0 0 1 512.568889 611.555556h-1.137778a56.32 56.32 0 0 1-56.32-56.32V440.888889H340.764444a56.32 56.32 0 0 1-56.32-56.32v-1.137778c0-31.118222 25.201778-56.32 56.32-56.32H455.111111v-114.346667c0-31.118222 25.201778-56.32 56.32-56.32h1.137778a56.32 56.32 0 0 1 56.32 56.32V327.11111100000005h114.346667a56.32 56.32 0 0 1 56.32 56.32v1.137778a56.32 56.32 0 0 1-56.32 56.32z"  horiz-adv-x="1024" />

    
    <glyph glyph-name="feedback" unicode="&#58982;" d="M486.497064 458.138512H265.18118c-12.82314 0-23.218648-10.395508-23.218648-23.218647s10.395508-23.218648 23.218648-23.218648h221.315884c12.82314 0 23.218648 10.395508 23.218648 23.218648s-10.395508 23.218648-23.218648 23.218647zM572.325276 609.93156H265.18118c-12.82314 0-23.218648-10.395508-23.218648-23.218648s10.395508-23.218648 23.218648-23.218647h307.144096c12.82314 0 23.218648 10.395508 23.218647 23.218647s-10.395508 23.218648-23.218647 23.218648zM759.355336 306.345465H265.18118c-12.82314 0-23.218648-10.395508-23.218648-23.218647s10.395508-23.218648 23.218648-23.218648h494.174156c12.82314 0 23.218648 10.395508 23.218648 23.218648s-10.395508 23.218648-23.218648 23.218647zM588.212904 459.094821l-10.697554-14.749068-0.346073-29.467419c-0.052218-4.459021 3.372678-7.714976 7.447742-7.714976 0.843682 0 1.713984 0.139248 2.588382 0.436175l27.901899 9.482202 10.697554 14.749068-37.59195 27.264018zM872.253028 833.366887c-7.599277 0-15.294799-3.725919-20.30979-10.640216L600.868127 476.543875l37.591949-27.264018L889.535188 795.461628c8.043643 11.089702 6.148431 26.183819-4.232742 33.712449-3.907146 2.834115-8.461388 4.19281-13.049418 4.19281zM759.355336 154.55344200000002H265.18118c-12.82314 0-23.218648-10.395508-23.218648-23.218647s10.395508-23.218648 23.218648-23.218648h494.174156c12.82314 0 23.218648 10.395508 23.218648 23.218648s-10.395508 23.218648-23.218648 23.218647zM848.090358 553.960868V2.9948650000000043c0-11.108132-9.005071-20.113203-20.113203-20.113204H193.154943c-11.108132 0-20.113203 9.005071-20.113204 20.113204V734.054106c0 11.108132 9.005071 20.113203 20.113204 20.113203h424.306269c12.82314 0 23.218648 10.395508 23.218648 23.218648s-10.395508 23.218648-23.218648 23.218647H193.154943c-36.755435 0-66.551522-29.796087-66.551523-66.551522v-731.060265c0-36.755435 29.796087-66.550498 66.550499-66.550499h634.822212c36.755435 0 66.550498 29.796087 66.550498 66.550499V553.960868c0 12.82314-10.395508 23.218648-23.218647 23.218648-12.822116 0-23.217624-10.395508-23.217624-23.218648z"  horiz-adv-x="1024" />

    
    <glyph glyph-name="facebook" unicode="&#58933;" d="M889.151 831.777H134.69c-38.601 0-70.182-31.583-70.182-70.182v-754.461c0-38.599 31.582-70.182 70.182-70.182h754.461c38.601 0 70.182 31.583 70.182 70.182V761.595c0 38.599-31.582 70.182-70.182 70.182z m-99.008-503.811h-90.234v-338.378H575.837V327.966h-90.235V440.762h90.235V576.113c0 56.396 49.592 84.209 78.955 90.236 35.908 7.368 140.991 5.637 140.991 5.637v-124.07h-78.955c-22.558 0-22.558-22.562-22.558-22.562v-84.592h107.153l-11.28-112.796z"  horiz-adv-x="1024" />

    
    <glyph glyph-name="star-alt" unicode="&#59582;" d="M512 159.14666699999998L775.68 0l-69.973333 299.946667L938.666667 501.76l-306.773334 26.453333L512 810.666667 392.106667 528.2133329999999 85.333333 501.76l232.533334-201.813333L248.32 0 512 159.14666699999998z"  horiz-adv-x="1024" />

    
    <glyph glyph-name="star-hollow" unicode="&#58881;" d="M844.8-128c-7.168 0-15.36 2.048-21.504 7.168l-286.72 207.872-286.72-207.872c-13.312-9.216-30.72-9.216-44.032 0s-18.432 26.624-13.312 41.984L302.08 258.048 15.36 465.92c-13.312 9.216-18.432 26.624-13.312 41.984s19.456 25.6 35.84 25.6h353.28L500.736 870.4c5.12 15.36 19.456 25.6 35.84 25.6s30.72-10.24 35.84-25.6l108.544-336.896h354.304c16.384 0 30.72-10.24 35.84-25.6s0-32.768-13.312-41.984l-286.72-207.872 109.568-336.896c5.12-15.36-1.024-32.768-13.312-41.984-7.168-5.12-14.336-7.168-22.528-7.168z m-308.224 299.008c7.168 0 15.36-3.072 21.504-7.168l216.064-156.672-82.944 252.928c-4.096 15.36 1.024 32.768 14.336 41.984l215.04 156.672h-266.24c-16.384 0-30.72 10.24-35.84 25.6l-81.92 253.952-81.92-253.952c-5.12-15.36-19.456-25.6-35.84-25.6h-266.24l215.04-156.672c13.312-9.216 18.432-26.624 13.312-41.984l-81.92-252.928 215.04 156.672c7.168 4.096 14.336 7.168 22.528 7.168z"  horiz-adv-x="1088" />

    
    <glyph glyph-name="search" unicode="&#59120;" d="M428.46208 242.72896000000003c56.48384 0 109.91616 19.57888 152.73984 55.37792l22.05696-22.05696-7.33184-7.33184a20.48 20.48 0 0 1 0-28.95872l169.10336-169.08288a20.41856 20.41856 0 0 1 28.95872 0l45.21984 45.21984a20.48 20.48 0 0 1 0 28.95872l-169.10336 169.08288a20.45952 20.45952 0 0 1-28.95872 0l-8.92928-8.92928-21.97504 21.97504a236.6464 236.6464 0 0 1 56.87296 154.35776c0 63.73376-24.82176 123.65824-69.89824 168.73472s-105.00096 69.89824-168.73472 69.89824-123.65824-24.82176-168.71424-69.89824a237.03552 237.03552 0 0 1-69.89824-168.73472c0-63.73376 24.82176-123.65824 69.89824-168.71424a236.81024 236.81024 0 0 1 168.69376-69.89824z m367.28832-112.37376l-16.26112-16.24064-140.14464 140.12416 16.26112 16.24064 140.14464-140.12416zM288.70656 621.0969600000001c37.33504 37.33504 86.95808 57.89696 139.75552 57.89696s102.44096-20.56192 139.776-57.89696a196.4032 196.4032 0 0 0 57.89696-139.776 196.34176 196.34176 0 0 0-57.89696-139.75552c-37.33504-37.33504-86.97856-57.89696-139.776-57.89696s-102.42048 20.56192-139.75552 57.89696a196.38272 196.38272 0 0 0-57.89696 139.75552 196.25984 196.25984 0 0 0 57.89696 139.776z"  horiz-adv-x="1024" />

    


  </font>
</defs>
</svg>
